<svg width="120" height="120" viewBox="0 0 120 120" fill="none" xmlns="http://www.w3.org/2000/svg">
<path fill-rule="evenodd" clip-rule="evenodd" d="M65.6234 114.716C63.7745 114.904 61.8985 115 60 115C47.2959 115 35.5978 110.693 26.2864 103.459C33.4 92.3501 45.844 85 59.9975 85C74.1517 85 86.5961 92.3508 93.7096 103.46C91.2695 105.356 88.6659 107.051 85.9235 108.52C85.6574 108.662 85.39 108.803 85.1213 108.941C79.1705 112.001 72.5891 114.009 65.6234 114.716ZM97.5466 100.19C89.4916 88.0238 75.6816 80 59.9975 80C44.3147 80 30.5056 88.0226 22.4503 100.188C11.7121 90.15 5 75.8588 5 60C5 29.6243 29.6243 5 60 5C90.3757 5 115 29.6243 115 60C115 75.8604 108.287 90.1527 97.5466 100.19ZM59.8059 120C59.8706 120 59.9353 120 60 120C93.1371 120 120 93.1371 120 60C120 26.8629 93.1371 0 60 0C26.8629 0 0 26.8629 0 60C0 77.7084 7.67154 93.625 19.8725 104.608C19.8722 104.608 19.872 104.609 19.8717 104.609C30.1679 113.877 43.6893 119.63 58.5479 119.983C58.9662 119.993 59.3855 119.998 59.8059 120ZM60 60C68.2842 60 75 53.2843 75 45C75 36.7157 68.2842 30 60 30C51.7157 30 45 36.7157 45 45C45 53.2843 51.7157 60 60 60ZM60 65C71.0457 65 80 56.0457 80 45C80 33.9543 71.0457 25 60 25C48.9543 25 40 33.9543 40 45C40 56.0457 48.9543 65 60 65Z" fill="black"/>
</svg>
