<svg width="83" height="84" viewBox="0 0 83 84" fill="none" xmlns="http://www.w3.org/2000/svg">
<path d="M23.6605 36.9117L19.0299 23.3644L76.0057 32.8479C71.6027 54.918 59.0747 69.8483 38.1045 78.0168L28.8943 51.6092" stroke="black" stroke-width="3" stroke-linejoin="round"/>
<path d="M34.3577 69.3978C42.7597 66.541 50.2582 61.3976 56.0038 54.5502C61.7495 47.7028 65.5126 39.4251 66.867 30.6546" stroke="black" stroke-width="3" stroke-linejoin="round"/>
<path d="M52.4162 45.2597C54.0802 43.2765 53.8634 40.3549 51.9318 38.7341C50.0002 37.1133 47.0852 37.407 45.4212 39.3901C43.7571 41.3733 43.974 44.295 45.9057 45.9158C47.8373 47.5366 50.7521 47.2428 52.4162 45.2597Z" stroke="black" stroke-width="3" stroke-linejoin="round"/>
<path d="M32.5134 37.5767C34.1245 38.9285 35.1182 40.8821 35.276 43.0076C35.4338 45.1332 34.7427 47.2565 33.3548 48.9106C32.1505 50.221 30.6002 51.159 28.8945 51.6092L23.6607 36.9117C25.0676 36.1604 26.6487 35.8238 28.2174 35.9416C29.786 36.0595 31.2767 36.6268 32.5134 37.5767Z" stroke="black" stroke-width="3" stroke-linejoin="round"/>
</svg>
